<svg width="20" height="20" viewBox="0 0 20 20" fill="none" xmlns="http://www.w3.org/2000/svg">
<path d="M18 3C18 2.44772 17.5523 2 17 2H3C2.44772 2 2 2.44772 2 3V17C2 17.5523 2.44772 18 3 18H17C17.5523 18 18 17.5523 18 17V3ZM20 17C20 18.6569 18.6569 20 17 20H3C1.34315 20 0 18.6569 0 17V3C0 1.34315 1.34315 0 3 0H17C18.6569 0 20 1.34315 20 3V17Z" fill="white"/>
<path d="M6 19V1C6 0.447715 6.44772 0 7 0C7.55228 0 8 0.447715 8 1V19C8 19.5523 7.55228 20 7 20C6.44772 20 6 19.5523 6 19Z" fill="white"/>
</svg>
